# xmcd
#
# Track frame offsets:
# 150
# 32418
# 49464
# 66294
# 79563
# 97951
# 110904
# 123811
# 136608
# 149998
# 162414
# 174749
# 196916
# 212961
# 225977
# 240254
#
# Disc length: 3472 seconds
#
#
# Revision: 3
# Processed by: cddbd v1.5.1PL2 Copyright (c) Steve Scherf et al.
# Submitted via: FreeRIP 2.941 
#
DISCID=dd0d8e10
DTITLE=The Temptations - Greatest Hits
DYEAR=1999
DGENRE=Motown
TTITLE0=Papa was A Rollin' Stone
TTITLE1=Just My Imagination
TTITLE2=Cloud Nine
TTITLE3=My Girl
TTITLE4=Ball Of Confusion (That's What Teh World Is Today)
TTITLE5=Get redy
TTITLE6=I Can't Get Next To You
TTITLE7=Ain't To Proud To Berg
TTITLE8=Superstar (Remember How You Got Where You Are)
TTITLE9=Beauty Is Only Skin Deep
TTITLE10=I'm Losing You
TTITLE11=Runaway Child (Running Wild)
TTITLE12=Keep On Truckin'
TTITLE13=the Way You Do The Things You Do
TTITLE14=I Wish It Could Rain
TTITLE15=Masterpiece
EXTD=
EXTT0=
EXTT1=
EXTT2=
EXTT3=
EXTT4=
EXTT5=
EXTT6=
EXTT7=
EXTT8=
EXTT9=
EXTT10=
EXTT11=
EXTT12=
EXTT13=
EXTT14=
EXTT15=
PLAYORDER=
